<?xml version="1.0" encoding="UTF-8" standalone="no"?>
<svg
  xmlns="http://www.w3.org/2000/svg"
  version="1.1"
  viewBox="0 0 680 680"
  height="680"
  width="680"
>
  <g
    fill="none" 
    stroke="black"
    stroke-width="25"
  >
    <path
      d="m 148.57379,262.31131 85.48534,85.48535 c 7.74207,-30.01538 21.19343,-64.4864 44.05746,-100.77239 a 219.99997,279.99997 45 0 0 -129.5428,15.28704 z m 183.62956,183.62956 85.42734,85.42734 A 219.99997,279.99997 45 0 0 432.9122,401.92209 c -36.26274,22.83976 -70.71096,36.28123 -100.70885,44.01878 z"
    />
    <path
      d="m 339.69978,170.59459 c -63.29777,63.29777 -92.58461,126.58477 -105.64065,177.20207 l 98.14421,98.14421 C 382.82064,432.88483 446.10764,403.59799 509.40541,340.30022 650.82676,198.87886 622.54249,57.45751 622.54249,57.45751 c 0,0 -141.42135,-28.28427 -282.84271,113.13708 z"
    />
    <path
      d="m 503.1326,68.82093 a 120,120 0 0 0 34.55708,73.48939 120,120 0 0 0 73.50182,34.51427 c 21.25854,-69.79259 11.351,-119.36708 11.351,-119.36708 0,0 -49.59468,-9.91228 -119.4099,11.36342 z"
    />
    <ellipse
      cx="467.5"
      cy="212.5"
      rx="50"
      ry="50"
    />
    <path
      d="m 212.42056,368.58449 c -11.75211,11.75212 -11.75211,30.67429 0,42.42641 l 56.56854,56.56854 c 11.75212,11.75212 30.6743,11.75212 42.42641,0 l 21.21321,-21.2132 -98.99495,-98.99495 z"
    />
  </g>
  <g fill="black" stroke="none">
    <path d="M 201.81396,400.4043 56.857066,566.57439 223.02716,421.6175 Z" />
    <path d="M 258.3825,456.97284 113.42561,623.14293 279.5957,478.18604 Z" />
    <path d="M 187.67182,471.11498 42.714931,637.28507 208.88502,492.32818 Z" />
  </g>
</svg>
